<?xml version="1.0" encoding="iso-8859-1"?>
<!-- Generator: Adobe Illustrator 18.1.1, SVG Export Plug-In . SVG Version: 6.00 Build 0)  -->
<svg version="1.1" id="Capa_1" xmlns="http://www.w3.org/2000/svg" xmlns:xlink="http://www.w3.org/1999/xlink" x="0px" y="0px"
	 viewBox="0 0 323.227 323.227" style="enable-background:new 0 0 323.227 323.227;" xml:space="preserve">
<g>
	<path style="fill:#ffffff;" d="M309.706,148.092h-54.021c-0.745,0-1.458,0.109-2.165,0.223
		c-2.263-15.692-8.436-30.105-17.53-42.251c0.593-0.435,1.18-0.881,1.702-1.403l38.199-38.199c2.556-2.562,3.96-5.95,3.96-9.562
		c0-3.612-1.403-7-3.96-9.562c-2.556-2.551-5.956-3.965-9.562-3.965s-7.006,1.414-9.556,3.965l-38.199,38.199
		c-0.533,0.522-0.979,1.104-1.403,1.702c-12.151-9.094-26.564-15.278-42.262-17.541c0.114-0.702,0.212-1.414,0.212-2.154V13.524
		c0-7.457-6.059-13.522-13.511-13.522c-7.457,0-13.522,6.065-13.522,13.522v54.021c0,0.745,0.109,1.458,0.223,2.154
		c-15.703,2.274-30.105,8.447-42.262,17.541c-0.424-0.582-0.87-1.169-1.398-1.702L66.46,47.339c-2.562-2.551-5.95-3.965-9.562-3.965
		c-3.612,0-7.006,1.414-9.562,3.965c-2.551,2.562-3.965,5.95-3.965,9.562c0,3.612,1.414,7,3.965,9.562l38.199,38.199
		c0.528,0.522,1.104,0.968,1.702,1.403c-9.094,12.14-15.267,26.559-17.53,42.251c-0.713-0.114-1.425-0.223-2.165-0.223H13.522
		C6.065,148.092,0,154.157,0,161.614s6.065,13.522,13.522,13.522h54.021c0.745,0,1.458-0.098,2.165-0.212
		c2.263,15.692,8.436,30.094,17.536,42.251c-0.587,0.424-1.175,0.87-1.702,1.392l-38.193,38.199c-2.556,2.562-3.96,5.95-3.96,9.562
		s1.403,7,3.96,9.562c2.556,2.551,5.95,3.965,9.562,3.965c3.606,0,7.006-1.414,9.556-3.965l38.199-38.199
		c0.533-0.522,0.979-1.104,1.403-1.702c12.14,9.094,26.554,15.267,42.251,17.541c-0.114,0.702-0.223,1.414-0.223,2.154v54.021
		c0,7.457,6.065,13.522,13.522,13.522c7.452,0,13.511-6.065,13.511-13.522v-54.021c0-0.745-0.103-1.458-0.212-2.154
		c15.692-2.263,30.105-8.447,42.256-17.541c0.43,0.593,0.876,1.18,1.403,1.702l38.193,38.199c2.562,2.551,5.95,3.965,9.562,3.965
		s7.006-1.414,9.562-3.965c2.551-2.562,3.965-5.95,3.965-9.562s-1.414-7-3.965-9.562l-38.199-38.188
		c-0.528-0.533-1.11-0.979-1.702-1.403c9.094-12.151,15.267-26.559,17.53-42.251c0.712,0.114,1.425,0.212,2.165,0.212h54.021
		c7.457,0,13.522-6.065,13.522-13.522C323.227,154.157,317.163,148.092,309.706,148.092z M224.786,161.614
		c0,34.832-28.338,63.164-63.169,63.164s-63.169-28.332-63.169-63.164s28.338-63.164,63.169-63.164S224.786,126.782,224.786,161.614
		z"/>
</g>
<g>
</g>
<g>
</g>
<g>
</g>
<g>
</g>
<g>
</g>
<g>
</g>
<g>
</g>
<g>
</g>
<g>
</g>
<g>
</g>
<g>
</g>
<g>
</g>
<g>
</g>
<g>
</g>
<g>
</g>
</svg>
