<?xml version="1.0" encoding="utf-8"?>
<!-- Generator: Adobe Illustrator 19.0.0, SVG Export Plug-In . SVG Version: 6.00 Build 0)  -->
<svg version="1.1" id="Calque_3" xmlns="http://www.w3.org/2000/svg" xmlns:xlink="http://www.w3.org/1999/xlink" x="0px" y="0px"
	 viewBox="0 0 2834.6 2834.6" style="enable-background:new 0 0 2834.6 2834.6;" xml:space="preserve">
<style type="text/css">
	.st0{fill:#FFFFFF;}
</style>
<path id="XMLID_11_" class="st0" d="M2514.9,755.9L2810,244.7H19.1l297.1,514.6c-60.8,61.8-108.6,133.5-142.3,213.1
	c-35.7,84.4-53.8,174-53.8,266.3s18.1,181.9,53.8,266.3c34.5,81.5,83.8,154.6,146.6,217.4c62.8,62.8,136,112.1,217.4,146.6
	c84.4,35.7,174,53.8,266.3,53.8c58.4,0,115.7-7.2,171.3-21.6l439.1,760.5l439.8-761.7c57,15.1,115.9,22.8,175.9,22.8
	c92.3,0,181.9-18.1,266.3-53.8c81.5-34.5,154.6-83.8,217.4-146.6c62.8-62.8,112.1-136,146.6-217.4c35.7-84.4,53.8-174,53.8-266.3
	s-18.1-181.9-53.8-266.3C2626.2,891.3,2577.2,818.5,2514.9,755.9z M265.4,386.9h2298.3L2403.1,665c-33.7-21.9-69.3-40.9-106.6-56.7
	c-84.4-35.7-174-53.8-266.3-53.8c-92.3,0-181.9,18.1-266.3,53.8c-81.5,34.5-154.6,83.8-217.4,146.6
	c-52.9,52.9-96.3,113.3-129.3,179.7c-33-66.4-76.3-126.7-129.3-179.7c-62.8-62.8-136-112.1-217.4-146.6
	c-84.4-35.7-174-53.8-266.3-53.8s-181.9,18.1-266.3,53.8c-38.8,16.4-75.7,36.2-110.4,59.2L265.4,386.9z M2567.4,1167.6H1492.9
	c34.9-265.3,262.5-470.8,537.2-470.8S2532.5,902.3,2567.4,1167.6z M804.2,696.8c274.7,0,502.3,205.5,537.2,470.8H267
	C301.9,902.3,529.5,696.8,804.2,696.8z M804.2,1780.6c-274.7,0-502.3-205.5-537.2-470.8h1074.5
	C1306.5,1575.1,1078.9,1780.6,804.2,1780.6z M1414.5,2377.3l-304.1-526.7c65.6-32.8,125.1-75.8,177.5-128.1
	c52.9-52.9,96.3-113.3,129.3-179.7c33,66.4,76.3,126.7,129.3,179.7c51.3,51.3,109.4,93.5,173.4,126.1L1414.5,2377.3z M2030.2,1780.6
	c-274.7,0-502.3-205.5-537.2-470.8h1074.5C2532.5,1575.1,2304.9,1780.6,2030.2,1780.6z"/>
</svg>
